<svg width="32" height="32" viewBox="0 0 32 32" fill="none" xmlns="http://www.w3.org/2000/svg">
        <path d="M2 22h2c.5 1.5 1.5 2.5 3 2.5s2.5-1 3-2.5h12c.5 1.5 1.5 2.5 3 2.5s2.5-1 3-2.5h2v-7l-1-7H3l-1 7v7z" stroke="currentColor" stroke-width="1.5" fill="none" stroke-linejoin="round"/>
        <circle cx="7" cy="22" r="1.5" stroke="currentColor" stroke-width="1.5" fill="none"/>
        <circle cx="25" cy="22" r="1.5" stroke="currentColor" stroke-width="1.5" fill="none"/>
        <path d="M3 16h26" stroke="currentColor" stroke-width="1.5" stroke-linecap="round"/>
        <rect x="5" y="10" width="3" height="5" rx="0.5" stroke="currentColor" stroke-width="1" fill="none"/>
        <rect x="10" y="10" width="3" height="5" rx="0.5" stroke="currentColor" stroke-width="1" fill="none"/>
        <rect x="15" y="10" width="3" height="5" rx="0.5" stroke="currentColor" stroke-width="1" fill="none"/>
        <rect x="20" y="10" width="3" height="5" rx="0.5" stroke="currentColor" stroke-width="1" fill="none"/>
        <rect x="24" y="10" width="3" height="5" rx="0.5" stroke="currentColor" stroke-width="1" fill="none"/>
      </svg>